/* XPM */
static char *lcd4linux[] = {
"38 18 2 1",
"# c #102000",
". c #a0d000",
"......................................",
"......................................",
"..##............######....######......",
"..##............######....######......",
"..##..........##......##..##....##....",
"..##..........##......##..##....##....",
"..##..........##..........##......##..",
"..##..........##..........##......##..",
"..##..........##..........##......##..",
"..##..........##..........##......##..",
"..##..........##..........##......##..",
"..##..........##..........##......##..",
"..##..........##......##..##....##....",
"..##..........##......##..##....##....",
"..##########....######....######......",
"..##########....######....######......",
"......................................",
"......................................",
};
